<svg id="O2_Shape" data-name="O2 Shape" xmlns="http://www.w3.org/2000/svg" viewBox="0 0 500 499.1"><defs><radialGradient id="radial-gradient" cx="87.4" cy="184" fx="-34.5" fy="328.9" r="411.5" gradientTransform="matrix(.95 .3 -.28 .89 56.5 -7)" gradientUnits="userSpaceOnUse"><stop offset="0" stop-color="#979bed"/><stop offset=".4" stop-color="#62d9e7"/><stop offset=".4" stop-color="#72d6e7"/><stop offset=".5" stop-color="#bbcae5"/><stop offset=".6" stop-color="#e9c3e3"/><stop offset=".7" stop-color="#fbc0e3"/><stop offset="1" stop-color="#f9e390"/></radialGradient><radialGradient id="radial-gradient-2" cx="80" cy="215.5" fx="-58.7" fy="153.9" r="495.9" gradientUnits="userSpaceOnUse"><stop offset="0" stop-color="#fbc2dd"/><stop offset=".2" stop-color="#fbc9cd"/><stop offset=".6" stop-color="#fad0bb"/><stop offset=".7" stop-color="#faea94"/><stop offset="1" stop-color="#ffd97c"/></radialGradient><style>.cls-1{fill:#00f}</style></defs><path class="cls-1" d="M260 353.8l-.3 2.5.3-2.5zm96.1-94l-2.5.4z" transform="translate(.5 -.7)"/><path d="M259 248.1c0-4.2.4-8.5.8-12.7a2 2 0 010 .3v-.5a1.6 1.6 0 000 .2 120.5 120.5 0 017.7-28.4c-.6 1.2.2-.6.1-.3A126.2 126.2 0 01282 182l-.2.3-.3.5a116 116 0 0120.5-20.7 5.4 5.4 0 01.5-.4l-.2.1a121.5 121.5 0 0124.3-14h-.1a4.7 4.7 0 01.6-.3l-.5.2a119.6 119.6 0 0128.2-7.7h-.2a3.2 3.2 0 01.5 0 122 122 0 0129.9 0 9.7 9.7 0 00-1.2-.2 133.3 133.3 0 0129.1 7.8 6.8 6.8 0 00-1-.3c1.4.3 1.4.4 1 .3a134 134 0 0124.6 14.5l-.9-.6c16 11.9 28.7 29.9 35 45a123 123 0 017.8 28.5v-.4l.1 1v-.5a126.2 126.2 0 010 29.3v-.2c0 .3-.2 1.5-.1.3a119.9 119.9 0 01-7.7 28.4v-.2l-.1.5v-.3a122.2 122.2 0 01-14.3 24.6l-.1.1a120.4 120.4 0 01-20.2 20l.5-.2a126.7 126.7 0 01-25 14.5l.5-.2a3.2 3.2 0 01-.9.4 122.2 122.2 0 01-27.4 7.4l-.6.1h.2c-8.5 1.6-23.8-2.3-24.3 10.5a9.8 9.8 0 009.6 9.5H490c12.5 0 12.5-19 0-19.1h-52.3c75.5-43.8 82.9-160.3 12.6-212.5-93-71.5-218.5 2-211.3 116.8v-.4a116 116 0 01-22 53.3 133.3 133.3 0 01-19.6 19.5 121.5 121.5 0 01-25.6 15 10.9 10.9 0 001.1-.5 112.9 112.9 0 01-58 8 121 121 0 01-28.2-7.7l.4.2a9 9 0 01-.8-.4l.2.1A120.7 120.7 0 0162 337.5l.5.4-.7-.5A121.8 121.8 0 0142 317.6l.2.3-.5-.7.1.2a121.3 121.3 0 01-14-24.2v.2a120.5 120.5 0 01-7.7-28.3 1.4 1.4 0 010 .2l-.1-.7a1.6 1.6 0 000 .2c-1.5-35-1.8-115.7 0-150.6v.7a116.8 116.8 0 017.6-28.2l-.2.5a8.5 8.5 0 01.4-1l-.2.4a125.3 125.3 0 0114.5-24.5l-.4.4.6-.8a4.4 4.4 0 01-.2.3 119.9 119.9 0 0119.8-19.8l-.3.2.4-.3a121 121 0 0125-14.6l-1 .5a118.3 118.3 0 0128.4-7.9h-.3l1-.1h-.4a124.7 124.7 0 0129.9 0h-.1.2-.1a120.7 120.7 0 0128 7.8l-.3-.1.5.2h-.2a121.8 121.8 0 0124.5 14.4V42a2.3 2.3 0 01.2.3l-.2-.1a122.7 122.7 0 0120 20.2.4.4 0 010-.1c.1.1.1.2 0 0A122 122 0 01231.4 87l-.4-.9a119.8 119.8 0 017.8 28.6v-.5l.1.9a1.2 1.2 0 010-.3 126 126 0 01.8 14.6c-.1 12.4 19.3 12.3 19.2 0 0-27-8.4-53.9-24.3-75.6-48-70.4-160.6-71.2-209.4-1.2C1.8 82.2-1.8 120.6 0 157c2.4 42.6-8.6 119.3 16.7 156.8C82.1 429.5 260.8 381.3 259 248zm198.5 69.2l.4-.5a2.5 2.5 0 01-.5.5zm14.4-24.7l.1-.4a2.4 2.4 0 01-.2.4zm-212-58.1v.6a2.3 2.3 0 010-.6zM217.1 62.3l-.5-.6a2 2 0 01.5.6zM197 42.2a8.4 8.4 0 00-.6-.5 3 3 0 01.6.5zm-52.6-22l-.9-.2a3.6 3.6 0 01.9.1z" transform="translate(.5 -.7)" fill="url(#radial-gradient)"/><path d="M499.5 490.1c.2 5.3-4.8 9.8-10 9.6H249.4a9.7 9.7 0 01-9.6-9.6c.7-20.8-2.2-126.7 2.3-144.9A130.6 130.6 0 01369.6 240c12.5.3 12.6 19 0 19.2a123 123 0 00-14.7.9l1.2-.2-2.5.3 1.3-.1c-48.3 6-89 46.5-95 94.7l.1-1-.3 2.5.2-1.5c-2 16-.5 107.8-1 125.7h231a9.8 9.8 0 019.6 9.6z" transform="translate(.5 -.7)" fill="url(#radial-gradient-2)"/><path class="cls-1" d="M20 265.3v-.7a7 7 0 010 .7zm7.8-179a6.5 6.5 0 01-.4.9 8.5 8.5 0 01.4-1zm0 207a2.6 2.6 0 01-.1-.2 2 2 0 01.1.3zM42.3 318l-.6-.7.2.2a1.6 1.6 0 00.1.2zm0-256.2a6 6 0 01-.6.8l.6-.8zm20 276.2zm0-296l-.7.5.6-.5zM87 352.1a9 9 0 01-.8-.3 5 5 0 01.8.3zm27.6 7.5h-.2zm.3 0h-.2a1 1 0 01.2 0zm.3-339.6a8.3 8.3 0 01-1 .1zm29.5.2h-.2zm28.2 7.8a2.8 2.8 0 01-.6-.2zm24.4 14.5l-.1-.2h-.1a2.3 2.3 0 01.2.2zm20 20a.4.4 0 01-.1 0s.1.1 0 0zm21.7 52.7a2.4 2.4 0 010-.3v-.5c-.1 0 0 .6 0 .8zm20.8 120a1.6 1.6 0 000 .2 2 2 0 010 .2v-.4zm7.8-28.5l-.1.3c-.6 1.2.2-.6.1-.3zm34.9-45a3.8 3.8 0 01-.6.4 5.4 5.4 0 01.6-.4zm24.5-14.2a4.4 4.4 0 01-.6.3 4.7 4.7 0 01.6-.3zm28-7.5a2.4 2.4 0 01-.4 0 3.2 3.2 0 01.5 0zm29.6 219.6h-.5a2 2 0 01.5 0zm.1 0zm28.3-212a6.8 6.8 0 00-1-.3l1 .3zm44.5 169.7l-.2.2a1 1 0 01.2-.2zm14.4-24.7l-.2.5a3 3 0 01.2-.5zm7.7-57.2a7.6 7.6 0 01-.1-.9v1zm0 28.7c0 .3-.2 1.5 0 .3v-.3z" transform="translate(.5 -.7)"/></svg>